
<svg width="421px" height="52px" viewBox="0 0 421 52" version="1.1" xmlns="http://www.w3.org/2000/svg" xmlns:xlink="http://www.w3.org/1999/xlink">
    <g id="Page-1" stroke="none" stroke-width="1" fill="none" fill-rule="evenodd">
        <g id="Desktop-HD" transform="translate(-398.000000, -323.000000)" fill="#000000">
            <g id="Group" transform="translate(397.000000, 310.000000)">
                <path d="M4.66702681,45.0625066 L4.66702681,52 L1.33890498,52 L1.33890498,36.0000153 L4.5732769,36.0000153 L4.5732769,42.1171969 L4.71390176,42.1171969 C5.26077624,40.7031358 6.47952508,39.8437616 8.29983584,39.8437616 C10.7998335,39.8437616 12.4560819,41.546885 12.4482694,44.3593823 L12.4482969,52 L9.12014756,52 L9.12014756,44.9531317 C9.12796006,43.4765706 8.33108582,42.609384 6.9795246,42.609384 C5.6201509,42.609384 4.6748393,43.5156331 4.66702681,45.0625066 Z M21.7160864,40.0000114 L21.7160864,42.5000091 L19.458276,42.5000091 L19.458276,48.2812535 C19.458276,49.2031277 19.9192131,49.4531274 20.583275,49.4531274 C20.8957747,49.4531274 21.2473368,49.382815 21.4113992,49.3437525 L21.9348362,51.8281252 C21.598899,51.9296876 20.9895246,52.1015624 20.1301504,52.1406249 C17.7160902,52.2343748 16.1145292,51.0703134 16.1301542,48.7265656 L16.1301542,42.5000091 L14.4895308,42.5000091 L14.4895308,40.0000114 L16.1301542,40.0000114 L16.1301542,37.1250142 L19.458276,37.1250142 L19.458276,40.0000114 L21.7160864,40.0000114 Z M30.5698364,40.0000114 L30.5698364,42.5000091 L28.312026,42.5000091 L28.312026,48.2812535 C28.312026,49.2031277 28.7729631,49.4531274 29.437025,49.4531274 C29.7495247,49.4531274 30.1010868,49.382815 30.2651492,49.3437525 L30.7885862,51.8281252 C30.452649,51.9296876 29.8432746,52.1015624 28.9839004,52.1406249 C26.5698402,52.2343748 24.9682792,51.0703134 24.9839042,48.7265656 L24.9839042,42.5000091 L23.3432808,42.5000091 L23.3432808,40.0000114 L24.9839042,40.0000114 L24.9839042,37.1250142 L28.312026,37.1250142 L28.312026,40.0000114 L30.5698364,40.0000114 Z M33.04078,56.4999957 L33.04078,40.0000114 L36.3220269,40.0000114 L36.3220269,42.0156345 L36.4704642,42.0156345 C36.9157763,41.039073 37.8767129,39.8437616 39.8845235,39.8437616 C42.5173334,39.8437616 44.7438938,41.8906346 44.7438938,46.0156307 C44.7438938,50.0312519 42.6110834,52.1953123 39.876711,52.1953123 C37.9392128,52.1953123 36.9314013,51.0781259 36.4704642,50.0781268 L36.3689018,50.0781268 L36.3689018,56.4999957 L33.04078,56.4999957 Z M36.2985894,46.0000057 C36.2985894,48.1406287 37.2204635,49.5468773 38.8220245,49.5468773 C40.4548354,49.5468773 41.3454596,48.0937537 41.3454596,46.0000057 C41.3454596,43.9218827 40.4704604,42.4921966 38.8220245,42.4921966 C37.2048385,42.4921966 36.2985894,43.8593828 36.2985894,46.0000057 Z M57.199208,43.4218832 L54.1523359,43.609383 C53.9882735,42.8359462 53.3007742,42.2031343 52.1445253,42.2031343 C51.1132763,42.2031343 50.300777,42.6718839 50.3085895,43.3906332 C50.300777,43.9687577 50.7148391,44.3515698 51.8320256,44.5937571 L54.0038985,45.0312566 C56.3320213,45.5078187 57.4648327,46.5468802 57.4726452,48.2812535 C57.4648327,50.6484388 55.2382723,52.2343748 52.1289003,52.2343748 C48.9492158,52.2343748 46.9960927,50.8203136 46.683593,48.5234408 L49.9570274,48.351566 C50.1601522,49.3281275 50.9492139,49.8359396 52.1367128,49.8359396 C53.3007742,49.8359396 54.0742109,49.3281275 54.0898359,48.6171907 C54.0742109,48.0156288 53.5976489,47.6328167 52.5507749,47.4218794 L50.4726519,47.0078173 C48.1289041,46.5390677 46.9960927,45.3750063 47.0039052,43.578133 C46.9960927,41.2656352 49.0195283,39.8437616 52.0898378,39.8437616 C55.1210849,39.8437616 56.9023332,41.2109478 57.199208,43.4218832 Z M61.7795281,43.8046953 C60.7482791,43.8046953 59.8967174,42.9687586 59.9045299,41.9296971 C59.8967174,40.9062606 60.7482791,40.0703239 61.7795281,40.0703239 C62.7795272,40.0703239 63.6467138,40.9062606 63.6545263,41.9296971 C63.6467138,42.9687586 62.7795272,43.8046953 61.7795281,43.8046953 Z M61.7795281,52.2031248 C60.7482791,52.2031248 59.8967174,51.3671881 59.9045299,50.3281266 C59.8967174,49.3046901 60.7482791,48.4687534 61.7795281,48.4687534 C62.7795272,48.4687534 63.6467138,49.3046901 63.6545263,50.3281266 C63.6467138,51.3671881 62.7795272,52.2031248 61.7795281,52.2031248 Z M73.6098358,35.250016 L68.4535908,54.4062477 L65.586406,54.4062477 L70.7426511,35.250016 L73.6098358,35.250016 Z M82.4479608,35.250016 L77.2917158,54.4062477 L74.424531,54.4062477 L79.5807761,35.250016 L82.4479608,35.250016 Z" id="https://" fill-opacity="0.346875"></path>
                <path d="M372.396872,52.2031248 C371.365623,52.2031248 370.514061,51.3671881 370.521874,50.3281266 C370.514061,49.3046901 371.365623,48.4687534 372.396872,48.4687534 C373.396871,48.4687534 374.264058,49.3046901 374.27187,50.3281266 C374.264058,51.3671881 373.396871,52.2031248 372.396872,52.2031248 Z M382.680306,52.2343748 C378.984997,52.2343748 376.774062,49.6953147 376.774062,46.0468807 C376.774062,42.3671967 379.02406,39.8437616 382.664681,39.8437616 C385.797491,39.8437616 387.899051,41.6640724 388.039676,44.4375072 L384.899054,44.4375072 C384.719367,43.2421959 383.938117,42.4375091 382.719369,42.4375091 C381.172495,42.4375091 380.156871,43.7343829 380.156871,46.0000057 C380.156871,48.2968785 381.164683,49.6015648 382.719369,49.6015648 C383.859992,49.6015648 384.703742,48.8828155 384.899054,47.6015667 L388.039676,47.6015667 C387.883426,50.3593766 385.875616,52.2343748 382.680306,52.2343748 Z M395.862181,52.2343748 C392.22156,52.2343748 389.955937,49.7421897 389.955937,46.0468807 C389.955937,42.3281342 392.22156,39.8437616 395.862181,39.8437616 C399.502803,39.8437616 401.768425,42.3281342 401.768425,46.0468807 C401.768425,49.7421897 399.502803,52.2343748 395.862181,52.2343748 Z M395.877806,49.6562522 C397.526242,49.6562522 398.385616,48.1171912 398.385616,46.0234432 C398.385616,43.9296952 397.526242,42.3828217 395.877806,42.3828217 C394.19812,42.3828217 393.338746,43.9296952 393.338746,46.0234432 C393.338746,48.1171912 394.19812,49.6562522 395.877806,49.6562522 Z M409.622181,52.2343748 C405.98156,52.2343748 403.715937,49.7421897 403.715937,46.0468807 C403.715937,42.3281342 405.98156,39.8437616 409.622181,39.8437616 C413.262803,39.8437616 415.528425,42.3281342 415.528425,46.0468807 C415.528425,49.7421897 413.262803,52.2343748 409.622181,52.2343748 Z M409.637806,49.6562522 C411.286242,49.6562522 412.145616,48.1171912 412.145616,46.0234432 C412.145616,43.9296952 411.286242,42.3828217 409.637806,42.3828217 C407.95812,42.3828217 407.098746,43.9296952 407.098746,46.0234432 C407.098746,48.1171912 407.95812,49.6562522 409.637806,49.6562522 Z M421.288433,36.0000153 L421.288433,52 L417.960311,52 L417.960311,36.0000153 L421.288433,36.0000153 Z" id=".cool" fill-opacity="0.346875"></path>
                <path d="M86.5206998,13.0000381 L96.9503774,13.0000381 L107.965992,39.8750125 L108.434741,39.8750125 L119.450356,13.0000381 L129.880033,13.0000381 L129.880033,53 L121.676916,53 L121.676916,26.9648686 L121.344885,26.9648686 L110.993333,52.8046877 L105.407401,52.8046877 L95.0558479,26.8672124 L94.723817,26.8672124 L94.723817,53 L86.5206998,53 L86.5206998,13.0000381 Z M144.089442,53.5664057 C138.366791,53.5664057 134.128514,50.5585961 134.128514,44.6211017 C134.128514,37.9218894 139.46054,35.9297038 145.398034,35.3828293 C150.612873,34.8750173 152.663652,34.6211113 152.663652,32.6875194 L152.663652,32.570332 C152.663652,30.1093968 151.04256,28.6836169 148.210532,28.6836169 C145.222253,28.6836169 143.444911,30.1484593 142.878505,32.1406449 L135.1832,31.5156455 C136.335543,26.0469007 141.062101,22.609404 148.249594,22.609404 C154.929275,22.609404 160.983957,25.6172136 160.983957,32.7656443 L160.983957,53 L153.093339,53 L153.093339,48.8398477 L152.858965,48.8398477 C151.394122,51.6328138 148.523031,53.5664057 144.089442,53.5664057 Z M146.472252,47.8242237 C150.124592,47.8242237 152.722246,45.4218822 152.722246,42.277354 L152.722246,39.0937633 C151.726153,39.7578251 148.757406,40.1875122 146.941002,40.4414182 C144.011317,40.8515741 142.077725,42.0039167 142.077725,44.3476645 C142.077725,46.6328186 143.913661,47.8242237 146.472252,47.8242237 Z M181.755841,23.0000286 L181.755841,29.2500226 L176.111315,29.2500226 L176.111315,43.7031339 C176.111315,46.0078192 177.263658,46.6328186 178.923812,46.6328186 C179.705062,46.6328186 180.583967,46.4570375 180.994123,46.3593813 L182.302715,52.5703129 C181.462873,52.8242189 179.939436,53.253906 177.791001,53.3515622 C171.755851,53.5859369 167.751948,50.6757835 167.791011,44.8164141 L167.791011,29.2500226 L163.689452,29.2500226 L163.689452,23.0000286 L167.791011,23.0000286 L167.791011,15.8125355 L176.111315,15.8125355 L176.111315,23.0000286 L181.755841,23.0000286 Z M201.590216,23.0000286 L201.590216,29.2500226 L195.94569,29.2500226 L195.94569,43.7031339 C195.94569,46.0078192 197.098033,46.6328186 198.758187,46.6328186 C199.539437,46.6328186 200.418342,46.4570375 200.828498,46.3593813 L202.13709,52.5703129 C201.297248,52.8242189 199.773811,53.253906 197.625376,53.3515622 C191.590226,53.5859369 187.586323,50.6757835 187.625386,44.8164141 L187.625386,29.2500226 L183.523827,29.2500226 L183.523827,23.0000286 L187.625386,23.0000286 L187.625386,15.8125355 L195.94569,15.8125355 L195.94569,23.0000286 L201.590216,23.0000286 Z M220.428499,53 L206.248825,53 L206.248825,13.0000381 L220.545686,13.0000381 C232.615987,13.0000381 239.998793,20.500031 239.998793,32.9609566 C239.998793,45.4609447 232.615987,53 220.428499,53 Z M214.705848,45.7539132 L220.076937,45.7539132 C227.596461,45.7539132 231.561301,41.8867293 231.561301,32.9609566 C231.561301,24.0742463 227.596461,20.246125 220.096468,20.246125 L214.705848,20.246125 L214.705848,45.7539132 Z M250.360538,53 L242.196483,23.0000286 L250.614444,23.0000286 L255.262877,43.1562594 L255.536314,43.1562594 L260.38006,23.0000286 L268.641771,23.0000286 L273.563641,43.039072 L273.817547,43.039072 L278.387855,23.0000286 L286.786285,23.0000286 L278.641761,53 L269.833176,53 L264.676931,34.1328305 L264.305837,34.1328305 L259.149592,53 L250.360538,53 Z M294.394133,64.6796764 C292.030854,64.6796764 290.331637,64.1718643 289.394138,63.7617085 L291.269136,57.3164021 C294.198821,58.2148388 296.210537,58.0390577 297.382411,55.3046853 L297.929286,53.8593742 L287.167577,23.0000286 L295.917569,23.0000286 L302.1285,45.0312576 L302.441,45.0312576 L308.710525,23.0000286 L317.519111,23.0000286 L305.800372,56.4374967 C304.101155,61.2421796 300.487877,64.6796764 294.394133,64.6796764 Z M332.802718,53.5859369 C323.564446,53.5859369 317.91992,47.6484426 317.91992,38.1367329 C317.91992,28.8789293 323.642571,22.609404 332.470687,22.609404 C340.400367,22.609404 346.572236,27.6484617 346.572236,37.8437645 L346.572236,40.1289185 L326.142568,40.1289185 L326.142568,40.1484498 C326.142568,44.6211017 328.779285,47.3750054 332.939437,47.3750054 C335.712872,47.3750054 337.861307,46.1836003 338.70115,43.8984462 L346.396455,44.4062582 C345.224581,49.9726591 340.224586,53.5859369 332.802718,53.5859369 Z M326.142568,34.9726734 L338.740213,34.9726734 C338.720681,31.3984581 336.220684,28.8203356 332.607406,28.8203356 C328.916003,28.8203356 326.318349,31.554708 326.142568,34.9726734 Z M350.35195,53 L350.35195,23.0000286 L358.418349,23.0000286 L358.418349,28.2343986 L358.730848,28.2343986 C359.824597,24.5234647 362.55897,22.5703415 365.937873,22.5703415 C367.539434,22.5703415 368.945682,23.0000286 370.039431,23.6640905 L367.539434,30.5390839 C366.758184,30.1484593 365.840216,29.8359596 364.707405,29.8359596 C361.348033,29.8359596 358.691786,32.3554884 358.672255,36.0273599 L358.672255,53 L350.35195,53 Z" id="MattDwyer" fill-opacity="0.8671875"></path>
            </g>
        </g>
    </g>
</svg>